<svg width="16" height="24" viewBox="0 0 16 24" fill="none" xmlns="http://www.w3.org/2000/svg">
<path d="M15.5673 5.23662H12.1862V4.22545C12.1862 1.89509 10.3081 0 7.99986 0C5.69158 0 3.81352 1.89509 3.81352 4.22431V5.23548L0.432452 5.2366C0.193546 5.2366 0 5.43191 0 5.67297V23.5636C0 23.8047 0.193557 24 0.432452 24H15.5675C15.8065 24 16 23.8047 16 23.5636V5.67297C16 5.4319 15.8064 5.2366 15.5675 5.2366L15.5673 5.23662ZM4.67825 4.22433C4.67825 2.3761 6.16809 0.87289 7.99958 0.87289C9.83106 0.87289 11.3209 2.37624 11.3209 4.22433V5.23551L4.67797 5.23663L4.67825 4.22433ZM15.1349 23.1273H0.864818V6.10949H3.81352V8.22444C3.81352 8.46551 4.00708 8.66081 4.24597 8.66081C4.48487 8.66081 4.67842 8.4655 4.67842 8.22444V6.10949H11.3225V8.22444C11.3225 8.46551 11.516 8.66081 11.7549 8.66081C11.9938 8.66081 12.1874 8.4655 12.1874 8.22444V6.10949H15.1361L15.1349 23.1273Z" fill="#001B2F"/>
</svg>
