<svg width="135" height="31" viewBox="0 0 135 31" fill="none" xmlns="http://www.w3.org/2000/svg">
<path d="M6.97454 25H0.233535V0.190317H6.95717C9.57481 0.190317 11.4743 0.630451 12.6557 1.51072C13.8487 2.39099 14.4626 3.84459 14.4974 5.87153C14.5553 6.72863 14.5495 7.48149 14.48 8.13011C14.4105 9.20728 14.1094 10.0644 13.5766 10.7014C13.0438 11.3269 12.2214 11.7844 11.1095 12.0739V12.7863C12.2562 13.0758 13.0959 13.5449 13.6287 14.1935C14.1731 14.8306 14.4684 15.7051 14.5147 16.817C14.5958 17.6393 14.5958 18.4733 14.5147 19.3188C14.4337 21.3341 13.8082 22.7877 12.6384 23.6796C11.4685 24.5599 9.5806 25 6.97454 25ZM4.29899 3.87355V10.5624H6.93979C8.10962 10.5624 8.97252 10.3424 9.52848 9.90223C10.0844 9.4621 10.3798 8.83085 10.4145 8.00849C10.5188 7.22089 10.5188 6.43328 10.4145 5.64567C10.3798 5.06654 10.0844 4.62641 9.52848 4.32526C8.97252 4.02412 8.11542 3.87355 6.95717 3.87355H4.29899ZM4.29899 14.2457V21.3168H6.97454C9.23313 21.3168 10.3914 20.6334 10.4493 19.2667C10.5188 18.5138 10.5188 17.7609 10.4493 17.0081C10.4261 16.0004 10.1308 15.2881 9.56323 14.8711C8.99568 14.4541 8.07488 14.2457 6.8008 14.2457H4.29899ZM20.6303 25H16.8081V8.09536H20.6303V9.90223H21.2905C21.638 9.21886 22.0318 8.70344 22.4719 8.35597C22.912 7.99691 23.5375 7.81738 24.3483 7.81738C25.4834 7.81738 26.352 8.17065 26.9543 8.87718C27.5566 9.58371 27.8578 10.7478 27.8578 12.3693C27.8578 12.7979 27.8346 13.2032 27.7883 13.5855C27.7535 13.9561 27.7072 14.2862 27.6493 14.5758H24.2267C24.2382 14.3441 24.244 14.0082 24.244 13.5681C24.2556 13.128 24.2614 12.85 24.2614 12.7341C24.2614 12.016 24.1224 11.5238 23.8444 11.2574C23.5665 10.991 23.2074 10.8578 22.7673 10.8578C22.3387 10.8578 21.9159 10.9678 21.499 11.1879C21.0936 11.408 20.804 11.7033 20.6303 12.0739V25ZM34.0428 25.2085C32.6297 25.2085 31.5873 24.9073 30.9155 24.3051C30.2438 23.6912 29.8442 22.643 29.7168 21.1604C29.7052 20.9983 29.6936 20.7956 29.682 20.5523C29.682 20.3091 29.6936 20.1006 29.7168 19.9269C29.8094 18.7686 30.1858 17.8594 30.846 17.1992C31.5178 16.539 32.6877 15.9367 34.3555 15.3923C34.9578 15.207 35.5601 15.0506 36.1624 14.9232C36.7647 14.7958 37.3844 14.6684 38.0214 14.541V12.3519C38.0214 11.9002 37.8766 11.5527 37.587 11.3095C37.2975 11.0547 36.7589 10.9273 35.9713 10.9273C35.2879 10.9273 34.7899 11.0315 34.4772 11.24C34.176 11.4369 34.0081 11.7612 33.9733 12.2129C33.9617 12.3403 33.9501 12.5662 33.9386 12.8905C33.9386 13.2032 33.9386 13.5218 33.9386 13.8461C33.9501 14.1588 33.9617 14.402 33.9733 14.5758H30.2553C30.2438 14.4831 30.2264 14.2225 30.2032 13.7939C30.1916 13.3654 30.1974 13.0005 30.2206 12.6994C30.2901 10.9968 30.7592 9.75745 31.6279 8.98142C32.4965 8.2054 33.9791 7.81738 36.0755 7.81738C38.253 7.81738 39.753 8.25173 40.5753 9.12041C41.3977 9.97752 41.8031 11.3906 41.7915 13.3596L41.7741 25H37.9866V23.1758H37.4307C37.0716 23.8823 36.6431 24.3977 36.145 24.722C35.647 25.0463 34.9462 25.2085 34.0428 25.2085ZM35.5022 22.2028C36.0929 22.2028 36.5967 22.0986 37.0137 21.8901C37.4307 21.6816 37.7608 21.4152 38.004 21.0909V17.2339C37.5523 17.3034 37.1006 17.3845 36.6489 17.4772C36.2087 17.5698 35.7512 17.6741 35.2763 17.7899C34.5814 18.0216 34.1123 18.3227 33.8691 18.6933C33.6374 19.064 33.5042 19.4752 33.4695 19.9269C33.4347 20.2859 33.4405 20.5871 33.4868 20.8303C33.6143 21.7453 34.286 22.2028 35.5022 22.2028ZM48.1155 25H44.2933V8.09536H48.1155V9.90223H48.8278C49.2332 9.21886 49.6907 8.70344 50.2004 8.35597C50.71 7.99691 51.4339 7.81738 52.3721 7.81738C53.6577 7.81738 54.648 8.18223 55.343 8.91193C56.0379 9.63004 56.3854 10.8462 56.3854 12.5604V25H52.5806V12.1956C52.5806 11.3037 51.9957 10.8578 50.8258 10.8578C50.2815 10.8578 49.7487 10.9678 49.2274 11.1879C48.7062 11.408 48.3356 11.7033 48.1155 12.0739V25ZM62.779 25.2606C61.4817 25.2606 60.4914 24.8958 59.808 24.1661C59.1247 23.4364 58.7482 22.2202 58.6788 20.5176C58.644 20.0659 58.6208 19.4867 58.6093 18.7802C58.5977 18.0737 58.5919 17.3266 58.5919 16.539C58.5919 15.7514 58.5977 15.0043 58.6093 14.2978C58.6208 13.5913 58.644 13.0121 58.6788 12.5604C58.7482 10.8462 59.1305 9.63004 59.8254 8.91193C60.532 8.18223 61.5396 7.81738 62.8484 7.81738C63.8214 7.81738 64.5569 7.99691 65.0549 8.35597C65.5645 8.70344 66.0278 9.21886 66.4448 9.90223H67.0529V2.4489H70.8577V25H67.0529V23.1758H66.4448C66.0163 23.8475 65.5414 24.363 65.0202 24.722C64.499 25.0811 63.7519 25.2606 62.779 25.2606ZM64.2557 22.2028C64.858 22.2028 65.414 22.0928 65.9236 21.8727C66.4448 21.6527 66.8212 21.3631 67.0529 21.004V12.0739C66.8212 11.7033 66.4448 11.408 65.9236 11.1879C65.414 10.9678 64.8638 10.8578 64.2731 10.8578C63.1264 10.8578 62.5299 11.3037 62.4836 12.1956C62.4373 13.0179 62.4025 13.9677 62.3794 15.0449C62.3678 16.1104 62.3678 17.1644 62.3794 18.2069C62.4025 19.2493 62.4373 20.1411 62.4836 20.8824C62.5183 21.3341 62.6689 21.67 62.9353 21.8901C63.2133 22.0986 63.6534 22.2028 64.2557 22.2028Z" fill="#18394D"/>
<path d="M92.0884 25H80.6739V0.190317H84.7393V21.3168H92.0884V25ZM99.785 25.2606C97.5959 25.2606 96.0496 24.8321 95.1462 23.975C94.2428 23.1063 93.7447 21.6585 93.6521 19.6315C93.6173 19.203 93.5884 18.5891 93.5652 17.7899C93.5536 16.9791 93.5536 16.1684 93.5652 15.3576C93.5768 14.5352 93.6057 13.8866 93.6521 13.4117C93.7563 11.408 94.2544 9.97752 95.1462 9.12041C96.0381 8.25173 97.5843 7.81738 99.785 7.81738C101.997 7.81738 103.544 8.25173 104.424 9.12041C105.304 9.9891 105.791 11.4195 105.883 13.4117C105.93 13.8519 105.958 14.4715 105.97 15.2707C105.982 16.0699 105.982 16.8807 105.97 17.703C105.958 18.5138 105.93 19.1566 105.883 19.6315C105.779 21.6353 105.287 23.0773 104.406 23.9576C103.538 24.8263 101.997 25.2606 99.785 25.2606ZM99.785 22.1507C100.596 22.1507 101.175 22.0233 101.522 21.7685C101.87 21.5137 102.055 21.1546 102.078 20.6913C102.136 19.3825 102.165 17.9926 102.165 16.5216C102.165 15.0506 102.136 13.6607 102.078 12.3519C102.055 11.8886 101.87 11.5354 101.522 11.2921C101.186 11.0489 100.607 10.9273 99.785 10.9273C98.9742 10.9273 98.3893 11.0489 98.0303 11.2921C97.6712 11.5354 97.4801 11.8886 97.4569 12.3519C97.3874 13.6607 97.3469 15.0564 97.3353 16.539C97.3353 18.01 97.3758 19.3941 97.4569 20.6913C97.4801 21.1546 97.6712 21.5137 98.0303 21.7685C98.4009 22.0233 98.9858 22.1507 99.785 22.1507ZM113.614 30.6812C111.866 30.6812 110.528 30.4496 109.601 29.9863C108.686 29.523 108.148 28.8859 107.985 28.0751C107.974 27.9593 107.956 27.803 107.933 27.6061C107.922 27.4092 107.927 27.218 107.951 27.0327C107.997 26.6158 108.205 26.2277 108.576 25.8687C108.958 25.5096 109.462 25.3011 110.088 25.2432V24.6525C108.918 24.4904 108.281 23.9402 108.177 23.002C108.142 22.7472 108.142 22.4461 108.177 22.0986C108.223 21.6932 108.443 21.3631 108.837 21.1083C109.242 20.8535 109.746 20.6855 110.348 20.6044V20.0137C109.537 19.6431 108.935 19.0987 108.541 18.3806C108.159 17.6625 107.927 16.7069 107.846 15.5139C107.812 14.9348 107.788 14.4484 107.777 14.0546C107.777 13.6607 107.8 13.2669 107.846 12.8731C107.951 11.1126 108.426 9.83274 109.271 9.03354C110.117 8.22277 111.564 7.81738 113.614 7.81738C114.935 7.81738 115.977 7.97375 116.742 8.28647C117.506 8.58762 118.097 9.06829 118.514 9.72849H119.105C119.186 9.14937 119.412 8.7324 119.782 8.47759C120.164 8.22277 120.738 8.09536 121.502 8.09536V11.24H120.981C120.471 11.24 120.072 11.3443 119.782 11.5527C119.504 11.7496 119.354 12.1203 119.33 12.6647V13.4638C119.33 13.8229 119.33 14.1414 119.33 14.4194C119.342 14.6858 119.33 15.0506 119.296 15.5139C119.18 17.3671 118.699 18.6818 117.854 19.4578C117.02 20.2222 115.601 20.6044 113.597 20.6044C112.624 20.6044 111.947 20.6682 111.564 20.7956C111.194 20.9114 111.008 21.1025 111.008 21.3689V21.4558C111.02 21.7337 111.165 21.9249 111.443 22.0291C111.732 22.1218 112.445 22.1797 113.58 22.2028C115.595 22.226 117.089 22.5445 118.062 23.1584C119.035 23.7723 119.603 24.6409 119.765 25.7644C119.811 26.1467 119.811 26.5926 119.765 27.1022C119.51 29.4882 117.46 30.6812 113.614 30.6812ZM113.58 17.4598C114.321 17.4598 114.825 17.3324 115.091 17.0776C115.358 16.8228 115.514 16.51 115.56 16.1394C115.595 15.873 115.618 15.4908 115.63 14.9927C115.641 14.4831 115.641 13.9735 115.63 13.4638C115.618 12.9542 115.595 12.5662 115.56 12.2998C115.514 11.8481 115.346 11.5064 115.057 11.2748C114.779 11.0431 114.286 10.9273 113.58 10.9273C112.873 10.9273 112.369 11.0489 112.068 11.2921C111.779 11.5238 111.622 11.877 111.599 12.3519C111.495 13.9966 111.495 15.2244 111.599 16.0352C111.622 16.3942 111.761 16.7243 112.016 17.0255C112.282 17.315 112.804 17.4598 113.58 17.4598ZM113.701 27.8145C115.473 27.8145 116.452 27.4729 116.638 26.7895C116.707 26.5347 116.695 26.2509 116.603 25.9382C116.394 25.278 115.433 24.9479 113.719 24.9479C112.086 24.9479 111.176 25.2722 110.991 25.9208C110.922 26.2335 110.916 26.5231 110.974 26.7895C111.066 27.1138 111.333 27.3628 111.773 27.5366C112.213 27.7219 112.856 27.8145 113.701 27.8145ZM128.764 25.2606C126.575 25.2606 125.029 24.8321 124.126 23.975C123.222 23.1063 122.724 21.6585 122.631 19.6315C122.597 19.203 122.568 18.5891 122.545 17.7899C122.533 16.9791 122.533 16.1684 122.545 15.3576C122.556 14.5352 122.585 13.8866 122.631 13.4117C122.736 11.408 123.234 9.97752 124.126 9.12041C125.017 8.25173 126.564 7.81738 128.764 7.81738C130.977 7.81738 132.523 8.25173 133.403 9.12041C134.283 9.9891 134.77 11.4195 134.863 13.4117C134.909 13.8519 134.938 14.4715 134.949 15.2707C134.961 16.0699 134.961 16.8807 134.949 17.703C134.938 18.5138 134.909 19.1566 134.863 19.6315C134.758 21.6353 134.266 23.0773 133.386 23.9576C132.517 24.8263 130.977 25.2606 128.764 25.2606ZM128.764 22.1507C129.575 22.1507 130.154 22.0233 130.502 21.7685C130.849 21.5137 131.035 21.1546 131.058 20.6913C131.116 19.3825 131.145 17.9926 131.145 16.5216C131.145 15.0506 131.116 13.6607 131.058 12.3519C131.035 11.8886 130.849 11.5354 130.502 11.2921C130.166 11.0489 129.587 10.9273 128.764 10.9273C127.954 10.9273 127.369 11.0489 127.01 11.2921C126.651 11.5354 126.459 11.8886 126.436 12.3519C126.367 13.6607 126.326 15.0564 126.315 16.539C126.315 18.01 126.355 19.3941 126.436 20.6913C126.459 21.1546 126.651 21.5137 127.01 21.7685C127.38 22.0233 127.965 22.1507 128.764 22.1507Z" fill="#DDA853"/>
</svg>
