<svg width="19" height="24" viewBox="0 0 19 24" fill="none" xmlns="http://www.w3.org/2000/svg">
<path fill-rule="evenodd" clip-rule="evenodd" d="M19 19.5746C19 16.9542 16.9164 14.8304 14.3457 14.8304H4.65432C2.08359 14.8304 0 16.9542 0 19.5746V23.5862C0 23.8148 0.181668 24 0.405961 24H18.593C18.8173 24 18.999 23.8148 18.999 23.5862V19.5746H19ZM18.1881 19.5746V23.1725H0.812961V19.5746C0.812961 17.4125 2.53322 15.658 4.65536 15.658H14.3467C16.4679 15.658 18.1891 17.4115 18.1891 19.5746H18.1881ZM9.50039 0C5.97055 0 3.10349 2.92133 3.10349 6.52036C3.10349 10.1183 5.97055 13.0407 9.50039 13.0407C13.0302 13.0407 15.8973 10.1183 15.8973 6.52036C15.8973 2.92133 13.0302 0 9.50039 0ZM9.50039 0.827591C12.5836 0.827591 15.0854 3.37864 15.0854 6.52036C15.0854 9.66202 12.5826 12.2131 9.50039 12.2131C6.41717 12.2131 3.91541 9.66208 3.91541 6.52036C3.91541 3.37763 6.41815 0.827591 9.50039 0.827591Z" fill="#001B2F"/>
</svg>
